<svg width="104" height="18" viewBox="0 0 104 18" fill="none" xmlns="http://www.w3.org/2000/svg">
<path d="M96.3691 13.6152H94.6782C94.6782 13.3493 94.7534 12.7365 94.9037 11.7769C95.054 10.8115 95.1812 10.0917 95.2852 9.6177L95.6928 7.77936C95.8662 7.06252 95.9529 6.51044 95.9529 6.12312C95.9529 5.42363 95.6812 5.07388 95.1378 5.07388C94.4788 5.07388 93.7995 5.52479 93.1 6.42662C92.4063 7.32267 91.967 8.20426 91.782 9.0714L90.8281 13.6152H89.1719L90.6634 6.47865C90.7327 6.14914 90.7674 5.88321 90.7674 5.68088C90.7674 5.12013 90.3541 4.83975 89.5274 4.83975H89.3887L89.5447 4.09401H92.8312L92.3543 6.33124H92.5277C93.4873 4.7357 94.5655 3.93793 95.7621 3.93793C97.0282 3.93793 97.6612 4.59406 97.6612 5.90634C97.6612 6.05086 97.6496 6.19249 97.6265 6.33124H97.7999C98.7653 4.7357 99.8435 3.93793 101.034 3.93793C102.3 3.93793 102.933 4.59406 102.933 5.90634C102.933 6.2821 102.826 6.93245 102.613 7.8574L102.153 9.95588C102.003 10.6438 101.928 11.2653 101.928 11.8202C101.928 12.3868 102.133 12.67 102.543 12.67C102.884 12.67 103.263 12.5342 103.679 12.2625L104 12.7828C103.248 13.4533 102.526 13.7886 101.832 13.7886C101.347 13.7886 100.956 13.6297 100.661 13.3117C100.367 12.9938 100.219 12.5631 100.219 12.0197C100.219 11.4763 100.332 10.6756 100.557 9.6177L100.861 8.23027C101.11 7.09143 101.234 6.38904 101.234 6.12312C101.234 5.42363 100.959 5.07388 100.41 5.07388C99.803 5.07388 99.1758 5.46409 98.5283 6.24452C97.8809 7.01917 97.4271 7.83139 97.1669 8.68119L96.8808 9.95588C96.8056 10.2796 96.7015 10.9126 96.5686 11.8549C96.4356 12.7972 96.3691 13.384 96.3691 13.6152Z" fill="white"/>
<path d="M84.5942 10.9358H84.4815C83.6317 12.8377 82.5246 13.7887 81.1603 13.7887C80.4377 13.7887 79.8741 13.5054 79.4694 12.9389C79.0705 12.3665 78.8711 11.5688 78.8711 10.5455C78.8711 8.91532 79.3769 7.40361 80.3886 6.0104C81.406 4.6172 82.6634 3.92059 84.1607 3.92059C84.9642 3.92059 85.6579 4.13449 86.2418 4.56228L87.0222 4.11136H87.5945L86.3805 9.79981C86.2071 10.6149 86.1204 11.2711 86.1204 11.7682C86.1204 12.3694 86.3141 12.67 86.7014 12.67C87.0367 12.67 87.4645 12.5168 87.9847 12.2105L88.3056 12.7307C87.4558 13.436 86.6204 13.7887 85.7995 13.7887C84.8746 13.7887 84.4121 13.2973 84.4121 12.3145C84.4121 11.9388 84.4728 11.4792 84.5942 10.9358ZM85.6001 5.36005C85.3284 4.93226 84.8804 4.71836 84.256 4.71836C83.2444 4.71836 82.3946 5.36294 81.7066 6.65209C81.0245 7.93545 80.6834 9.2564 80.6834 10.6149C80.6834 11.985 81.0563 12.67 81.802 12.67C82.3917 12.67 83.0102 12.2336 83.6577 11.3607C84.3052 10.4877 84.733 9.53388 84.9411 8.4991L85.6001 5.36005Z" fill="white"/>
<path d="M77.0914 6.496C77.0914 5.55949 76.8544 5.09123 76.3803 5.09123C75.8311 5.09123 75.2473 5.63175 74.6287 6.71279C74.0159 7.79382 73.5621 9.01649 73.2673 10.3808L72.5996 13.6152H70.9434L72.4348 6.47866C72.5042 6.14914 72.5389 5.88322 72.5389 5.68089C72.5389 5.12014 72.0678 4.83976 71.1255 4.83976H70.978L71.1428 4.09402H74.2819L73.909 6.65209H74.0911C74.5651 5.59417 75.0334 4.87445 75.4958 4.49291C75.9583 4.11136 76.4959 3.92059 77.1087 3.92059C78.0799 3.92059 78.5655 4.32815 78.5655 5.14326C78.5655 6.04509 78.0741 6.496 77.0914 6.496Z" fill="white"/>
<path d="M68.0916 4.48428C68.6523 3.64605 69.2911 3.22693 70.008 3.22693C70.6034 3.22693 70.9011 3.49863 70.9011 4.04204C70.9011 4.77622 70.5514 5.14331 69.8519 5.14331C69.8519 4.71552 69.6871 4.50163 69.3576 4.50163C69.1264 4.50163 68.8344 4.63748 68.4818 4.90918C68.7419 5.27916 68.872 5.73586 68.872 6.27926C68.872 7.27358 68.4991 8.18697 67.7534 9.01943C67.0076 9.8461 66.0249 10.2594 64.8051 10.2594C64.5334 10.2594 64.3455 10.2479 64.2415 10.2248C63.3975 10.5658 62.9754 10.9387 62.9754 11.3434C62.9754 11.6382 63.2789 11.8145 63.8859 11.8723L65.5855 12.0544C67.4239 12.251 68.343 13.0256 68.343 14.3784C68.343 15.4825 67.9268 16.341 67.0944 16.9538C66.2619 17.5723 65.0739 17.8816 63.5304 17.8816C60.9463 17.8816 59.6543 17.1098 59.6543 15.5663C59.6543 14.9304 59.9115 14.387 60.4261 13.9361C60.9463 13.491 61.6545 13.1817 62.5505 13.0083C61.984 12.7308 61.7007 12.3232 61.7007 11.7856C61.7007 11.4214 61.8164 11.1121 62.0476 10.8578C62.2846 10.6034 62.7298 10.3086 63.383 9.97328C62.5563 9.58596 62.143 8.88647 62.143 7.8748C62.143 6.8747 62.5188 5.96709 63.2703 5.15198C64.0276 4.33109 65.0248 3.92064 66.2619 3.92064C67.0192 3.92064 67.6291 4.10852 68.0916 4.48428ZM65.0046 9.40964C65.6809 9.40964 66.2243 9.07435 66.6348 8.40376C67.051 7.72739 67.2591 6.99032 67.2591 6.19255C67.2591 5.22135 66.8516 4.73575 66.0365 4.73575C65.3427 4.73575 64.7907 5.07683 64.3802 5.75898C63.9755 6.43535 63.7732 7.16664 63.7732 7.95284C63.7732 8.92404 64.1837 9.40964 65.0046 9.40964ZM65.1433 13.5632L63.4177 13.3985C63.331 13.3927 63.0737 13.4505 62.6459 13.5719C62.2239 13.6933 61.8597 13.9188 61.5533 14.2483C61.2469 14.5778 61.0938 14.9825 61.0938 15.4623C61.0938 16.4913 61.9291 17.0058 63.5998 17.0058C64.6404 17.0058 65.4323 16.8121 65.9758 16.4248C66.5249 16.0433 66.7995 15.5259 66.7995 14.8726C66.7995 14.098 66.2475 13.6615 65.1433 13.5632Z" fill="white"/>
<path d="M52.6946 13.7928C52.1855 13.7928 51.7179 13.6863 51.2916 13.4732C50.8654 13.2601 50.5221 12.9404 50.2616 12.5142C50.013 12.0761 49.8887 11.5256 49.8887 10.8626C49.8887 9.87993 50.2143 9.15773 50.8654 8.69599C51.5166 8.23426 52.4993 7.97971 53.8134 7.93236L55.2519 7.87908V6.95561C55.2519 6.51755 55.2164 6.16237 55.1454 5.89007C55.0862 5.60592 54.9855 5.39873 54.8434 5.2685C54.7132 5.12643 54.5415 5.05539 54.3284 5.05539C54.139 5.05539 53.9733 5.12643 53.8312 5.2685C53.7009 5.41057 53.5944 5.62368 53.5115 5.90782C53.4405 6.18013 53.405 6.52939 53.405 6.95561C52.4697 6.95561 51.7711 6.86089 51.3094 6.67146C50.8595 6.48203 50.6346 6.16237 50.6346 5.71248C50.6346 5.26258 50.8121 4.90148 51.1673 4.62917C51.5343 4.34503 52.0198 4.14376 52.6236 4.02537C53.2392 3.89513 53.9081 3.83002 54.6303 3.83002C55.9919 3.83002 57.01 4.05497 57.6849 4.50486C58.3716 4.94292 58.7149 5.71248 58.7149 6.81354V11.2888C58.7149 11.6085 58.7445 11.8571 58.8037 12.0347C58.8747 12.2123 58.9872 12.3425 59.1411 12.4254C59.295 12.4964 59.5022 12.5319 59.7627 12.5319H59.8337V13.6152H55.8735L55.4295 12.6207H55.2519C54.9914 12.9286 54.7428 13.1713 54.506 13.3489C54.2811 13.5146 54.0265 13.6271 53.7424 13.6863C53.4701 13.7573 53.1208 13.7928 52.6946 13.7928ZM54.0976 12.3544C54.3344 12.3544 54.5415 12.2656 54.7191 12.088C54.8967 11.9104 55.0329 11.6618 55.1276 11.3421C55.2223 11.0224 55.2697 10.6495 55.2697 10.2233V8.96238L54.7191 9.01566C54.3876 9.03934 54.1272 9.12813 53.9377 9.28204C53.7483 9.42412 53.6122 9.6313 53.5293 9.90361C53.4464 10.1759 53.405 10.5133 53.405 10.9159C53.405 11.2237 53.4286 11.4901 53.476 11.715C53.5234 11.9281 53.6003 12.088 53.7069 12.1945C53.8134 12.3011 53.9437 12.3544 54.0976 12.3544Z" fill="white"/>
<path d="M44.5629 13.7928C43.5684 13.7928 42.787 13.6981 42.2187 13.5087C41.6622 13.3193 41.2656 13.0647 41.0288 12.7451C40.8039 12.4136 40.6914 12.0584 40.6914 11.6795C40.6914 11.3362 40.7743 11.0639 40.94 10.8626C41.1058 10.6495 41.3307 10.5015 41.6149 10.4186C41.899 10.3239 42.2128 10.2766 42.5561 10.2766C42.5561 10.8212 42.6449 11.2592 42.8225 11.5907C43.0001 11.9222 43.2428 12.1649 43.5506 12.3188C43.8584 12.4609 44.2136 12.5319 44.6162 12.5319C45.1844 12.5319 45.5811 12.4313 45.806 12.23C46.0428 12.0288 46.1612 11.7979 46.1612 11.5374C46.1612 11.3125 46.0842 11.1231 45.9303 10.9692C45.7764 10.8034 45.5396 10.6554 45.22 10.5252C44.9121 10.3831 44.5155 10.247 44.0301 10.1167C43.3079 9.90361 42.7041 9.66682 42.2187 9.40636C41.7451 9.13405 41.3899 8.80255 41.1531 8.41185C40.9164 8.00931 40.798 7.50614 40.798 6.90233C40.798 5.84863 41.1768 5.07907 41.9345 4.59366C42.7041 4.0964 43.7164 3.84778 44.9713 3.84778C45.7882 3.84778 46.4394 3.93657 46.9248 4.11416C47.4221 4.27991 47.7773 4.49302 47.9904 4.75349C48.2153 5.01395 48.3278 5.28626 48.3278 5.5704C48.3278 5.99662 48.1739 6.31628 47.8661 6.52939C47.5582 6.7425 47.0669 6.84906 46.3921 6.84906C46.3921 6.26893 46.2263 5.83087 45.8948 5.53489C45.5633 5.22706 45.1548 5.07315 44.6694 5.07315C44.4326 5.07315 44.2136 5.10867 44.0123 5.17971C43.8229 5.2389 43.6749 5.33362 43.5684 5.46385C43.4618 5.58224 43.4085 5.74208 43.4085 5.94335C43.4085 6.15645 43.4677 6.34588 43.5861 6.51163C43.7164 6.66555 43.9354 6.81354 44.2432 6.95561C44.551 7.08584 44.9773 7.23383 45.5219 7.39959C46.1612 7.58902 46.7236 7.80804 47.209 8.05667C47.6944 8.3053 48.0673 8.62496 48.3278 9.01566C48.6001 9.39452 48.7363 9.89769 48.7363 10.5252C48.7363 11.496 48.387 12.2833 47.6885 12.8871C46.9899 13.4909 45.9481 13.7928 44.5629 13.7928Z" fill="white"/>
<path d="M35.6488 13.7928C34.6543 13.7928 33.8729 13.6981 33.3046 13.5087C32.7482 13.3193 32.3516 13.0647 32.1148 12.7451C31.8898 12.4136 31.7773 12.0584 31.7773 11.6795C31.7773 11.3362 31.8602 11.0639 32.026 10.8626C32.1917 10.6495 32.4167 10.5015 32.7008 10.4186C32.985 10.3239 33.2987 10.2766 33.642 10.2766C33.642 10.8212 33.7308 11.2592 33.9084 11.5907C34.086 11.9222 34.3287 12.1649 34.6365 12.3188C34.9444 12.4609 35.2996 12.5319 35.7021 12.5319C36.2704 12.5319 36.667 12.4313 36.8919 12.23C37.1287 12.0288 37.2471 11.7979 37.2471 11.5374C37.2471 11.3125 37.1702 11.1231 37.0163 10.9692C36.8623 10.8034 36.6256 10.6554 36.3059 10.5252C35.9981 10.3831 35.6015 10.247 35.116 10.1167C34.3938 9.90361 33.79 9.66682 33.3046 9.40636C32.831 9.13405 32.4759 8.80255 32.2391 8.41185C32.0023 8.00931 31.8839 7.50614 31.8839 6.90233C31.8839 5.84863 32.2628 5.07907 33.0205 4.59366C33.79 4.0964 34.8023 3.84778 36.0573 3.84778C36.8742 3.84778 37.5254 3.93657 38.0108 4.11416C38.508 4.27991 38.8632 4.49302 39.0763 4.75349C39.3013 5.01395 39.4137 5.28626 39.4137 5.5704C39.4137 5.99662 39.2598 6.31628 38.952 6.52939C38.6442 6.7425 38.1528 6.84906 37.478 6.84906C37.478 6.26893 37.3122 5.83087 36.9807 5.53489C36.6492 5.22706 36.2408 5.07315 35.7554 5.07315C35.5186 5.07315 35.2996 5.10867 35.0983 5.17971C34.9089 5.2389 34.7609 5.33362 34.6543 5.46385C34.5478 5.58224 34.4945 5.74208 34.4945 5.94335C34.4945 6.15645 34.5537 6.34588 34.6721 6.51163C34.8023 6.66555 35.0213 6.81354 35.3292 6.95561C35.637 7.08584 36.0632 7.23383 36.6078 7.39959C37.2471 7.58902 37.8095 7.80804 38.2949 8.05667C38.7803 8.3053 39.1533 8.62496 39.4137 9.01566C39.686 9.39452 39.8222 9.89769 39.8222 10.5252C39.8222 11.496 39.4729 12.2833 38.7744 12.8871C38.0759 13.4909 37.034 13.7928 35.6488 13.7928Z" fill="white"/>
<path d="M23.7512 13.7928C23.2421 13.7928 22.7745 13.6863 22.3483 13.4732C21.9221 13.2601 21.5787 12.9404 21.3183 12.5142C21.0696 12.0761 20.9453 11.5256 20.9453 10.8626C20.9453 9.87993 21.2709 9.15773 21.9221 8.69599C22.5732 8.23426 23.5559 7.97971 24.8701 7.93236L26.3085 7.87908V6.95561C26.3085 6.51755 26.273 6.16237 26.202 5.89007C26.1428 5.60592 26.0422 5.39873 25.9001 5.2685C25.7699 5.12643 25.5982 5.05539 25.3851 5.05539C25.1956 5.05539 25.0299 5.12643 24.8878 5.2685C24.7576 5.41057 24.651 5.62368 24.5682 5.90782C24.4971 6.18013 24.4616 6.52939 24.4616 6.95561C23.5263 6.95561 22.8278 6.86089 22.366 6.67146C21.9161 6.48203 21.6912 6.16237 21.6912 5.71248C21.6912 5.26258 21.8688 4.90148 22.224 4.62917C22.591 4.34503 23.0764 4.14376 23.6802 4.02537C24.2959 3.89513 24.9648 3.83002 25.687 3.83002C27.0485 3.83002 28.0667 4.05497 28.7415 4.50486C29.4282 4.94292 29.7716 5.71248 29.7716 6.81354V11.2888C29.7716 11.6085 29.8012 11.8571 29.8603 12.0347C29.9314 12.2123 30.0439 12.3425 30.1978 12.4254C30.3517 12.4964 30.5589 12.5319 30.8193 12.5319H30.8904V13.6152H26.9301L26.4861 12.6207H26.3085C26.0481 12.9286 25.7994 13.1713 25.5627 13.3489C25.3377 13.5146 25.0832 13.6271 24.799 13.6863C24.5267 13.7573 24.1775 13.7928 23.7512 13.7928ZM25.1542 12.3544C25.391 12.3544 25.5982 12.2656 25.7758 12.088C25.9534 11.9104 26.0895 11.6618 26.1842 11.3421C26.2789 11.0224 26.3263 10.6495 26.3263 10.2233V8.96238L25.7758 9.01566C25.4443 9.03934 25.1838 9.12813 24.9944 9.28204C24.8049 9.42412 24.6688 9.6313 24.5859 9.90361C24.503 10.1759 24.4616 10.5133 24.4616 10.9159C24.4616 11.2237 24.4853 11.4901 24.5326 11.715C24.58 11.9281 24.657 12.088 24.7635 12.1945C24.8701 12.3011 25.0003 12.3544 25.1542 12.3544Z" fill="white"/>
<path d="M13.7734 13.6153V12.532H13.9688C14.1937 12.532 14.3891 12.4965 14.5548 12.4254C14.7206 12.3425 14.8508 12.2123 14.9455 12.0347C15.0402 11.8453 15.0876 11.5967 15.0876 11.2888V2.19622C15.0876 1.90023 15.0107 1.68712 14.8567 1.55689C14.7147 1.41482 14.5548 1.3201 14.3772 1.27275C14.1997 1.22539 14.0635 1.20171 13.9688 1.20171H13.7734V0.118408H18.5506V11.2888C18.5506 11.5967 18.598 11.8453 18.6927 12.0347C18.7874 12.2123 18.9176 12.3425 19.0834 12.4254C19.261 12.4965 19.4563 12.532 19.6694 12.532H19.8648V13.6153H13.7734Z" fill="white"/>
<path d="M6.85499 13.7929C5.31587 13.7929 4.03722 13.5206 3.01904 12.976C2.01269 12.4314 1.25497 11.6736 0.74588 10.7028C0.248627 9.72015 0 8.57173 0 7.25756C0 5.97891 0.260466 4.85417 0.781398 3.88334C1.30233 2.90068 2.07781 2.13704 3.10783 1.59243C4.13786 1.03598 5.41059 0.757751 6.92603 0.757751C7.99157 0.757751 8.87952 0.852467 9.58988 1.0419C10.3002 1.23133 10.833 1.48587 11.1882 1.80554C11.5552 2.1252 11.7387 2.48038 11.7387 2.87108C11.7387 3.30913 11.5138 3.70575 11.0639 4.06093C10.6258 4.40427 9.93322 4.57595 8.98607 4.57595C8.98607 4.00766 8.9032 3.54 8.73745 3.17298C8.5717 2.79412 8.33491 2.50998 8.02709 2.32055C7.71926 2.13112 7.3404 2.0364 6.89051 2.0364C6.13279 2.0364 5.51714 2.24359 5.04357 2.65797C4.58183 3.06051 4.24441 3.65248 4.0313 4.43387C3.83003 5.20343 3.7294 6.14466 3.7294 7.25756C3.7294 8.37046 3.83595 9.31169 4.04906 10.0812C4.27401 10.8508 4.63511 11.4369 5.13236 11.8394C5.62962 12.2419 6.2867 12.4432 7.10362 12.4432C7.23385 12.4432 7.37 12.4373 7.51207 12.4254C7.66599 12.4136 7.82582 12.4018 7.99157 12.3899V9.95693C7.99157 9.66095 7.95605 9.41824 7.88501 9.22881C7.82582 9.03938 7.71334 8.89731 7.54759 8.8026C7.39368 8.70788 7.16873 8.66052 6.87275 8.66052H6.53533V7.57722H12.6267V8.66052H12.4668C12.2182 8.66052 12.0229 8.70788 11.8808 8.8026C11.7506 8.89731 11.6618 9.0453 11.6144 9.24657C11.5671 9.44784 11.5434 9.70831 11.5434 10.028V12.7273C10.7857 13.0825 10.022 13.3489 9.25246 13.5265C8.49474 13.7041 7.69558 13.7929 6.85499 13.7929Z" fill="white"/>
</svg>
